# xmcd
#
# Track frame offsets:
#	150
#	10918
#	20703
#	35500
#	48023
#	58534
#	67988
#	78020
#	89677
#	103975
#	116009
#	128841
#	141614
#	155712
#	170141
#	182290
#
# Disc length: 2569 seconds
# Revision: 0
# Processed by: cddbd v1.5.2PL0 Copyright (c) Steve Scherf et al.
# Submitted via: dBpowerAMP V12.0
#
DISCID=db0a0710
DTITLE=Various Artist - The Beginning Of The End - The Existential Psychodrama In Country Music (1956-1974)
DYEAR=1900
DGENRE=
TTITLE0=Whitey Gallagher - Searching (I'm Always Looking)
TTITLE1=Bobby Grove - Whistle Of The Gravy Train
TTITLE2=Jimmy Griggs - The Beginning Of The End
TTITLE3=Jim Ed Brown - The Enemy
TTITLE4=Ed Bruce - Puzzles
TTITLE5=Ray Sanders - My World Is Upside Down
TTITLE6=Johnny Darrell - Jimmy Jacob
TTITLE7=Billy Rufus - Low Down Blues
TTITLE8=Sammi Smith - Saunders Ferry Lane
TTITLE9=George Kent - Hello, I'm A Jukebox
TTITLE10=Johnny Dollar  - Meeting Of The Bored
TTITLE11=Curly Putman - Talking To The Grass
TTITLE12=Lonnie Holt - Water Under The Bridge
TTITLE13=Johnny Collier - Nobody Touches Me
TTITLE14=Tex Wayne - Deep Deep Blue
TTITLE15=Bob Fry - I'm Gonna Be Gone
EXTD=
EXTT0=
EXTT1=
EXTT2=
EXTT3=
EXTT4=
EXTT5=
EXTT6=
EXTT7=
EXTT8=
EXTT9=
EXTT10=
EXTT11=
EXTT12=
EXTT13=
EXTT14=
EXTT15=
PLAYORDER=
